<?xml version="1.0" standalone="no"?>
<!DOCTYPE svg PUBLIC "-//W3C//DTD SVG 20010904//EN"
 "http://www.w3.org/TR/2001/REC-SVG-20010904/DTD/svg10.dtd">
<svg version="1.0" xmlns="http://www.w3.org/2000/svg"
 width="48.000000pt" height="48.000000pt" viewBox="0 0 48.000000 48.000000"
 preserveAspectRatio="xMidYMid meet">

<g transform="translate(0.000000,48.000000) scale(0.100000,-0.100000)"
fill="#000000" stroke="none">
<path d="M172 429 c-48 -14 -109 -80 -123 -131 -23 -89 12 -182 88 -229 57
-36 154 -34 210 3 62 41 88 90 88 168 0 77 -26 127 -85 166 -43 29 -125 39
-178 23z m148 -42 c51 -27 90 -90 90 -147 0 -87 -83 -170 -170 -170 -87 0
-170 83 -170 170 0 20 10 56 23 80 27 51 90 90 147 90 20 0 56 -10 80 -23z"/>
<path d="M180 275 l-34 -35 34 -35 c44 -46 85 -49 43 -3 -15 17 -14 18 30 18
50 0 77 7 77 21 0 5 -27 9 -60 9 -61 0 -72 8 -45 30 8 7 15 16 15 21 0 19 -28
7 -60 -26z"/>
</g>
</svg>
