<?xml version="1.0" standalone="no"?>
<!DOCTYPE svg PUBLIC "-//W3C//DTD SVG 20010904//EN"
 "http://www.w3.org/TR/2001/REC-SVG-20010904/DTD/svg10.dtd">
<svg version="1.0" xmlns="http://www.w3.org/2000/svg"
 width="32.000000pt" height="32.000000pt" viewBox="0 0 32.000000 32.000000"
 preserveAspectRatio="xMidYMid meet">

<g transform="translate(0.000000,32.000000) scale(0.100000,-0.100000)"
fill="#000000" stroke="none">
<path d="M95 306 c-101 -44 -125 -178 -46 -257 65 -65 157 -65 222 0 124 124
-15 327 -176 257z m136 -29 c112 -74 75 -237 -58 -253 -48 -6 -100 20 -130 65
-79 118 70 267 188 188z"/>
<path d="M150 207 c0 -46 4 -57 30 -82 38 -36 53 -24 17 13 -21 22 -27 38 -27
75 0 26 -4 47 -10 47 -5 0 -10 -24 -10 -53z"/>
</g>
</svg>
